<svg width="20" height="20" viewBox="0 0 20 20" fill="none" xmlns="http://www.w3.org/2000/svg">
<path d="M15.2501 4.75834C14.9251 4.43334 14.4001 4.43334 14.0751 4.75834L10.0001 8.82501L5.9251 4.75001C5.6001 4.42501 5.0751 4.42501 4.7501 4.75001C4.4251 5.07501 4.4251 5.60001 4.7501 5.92501L8.8251 10L4.7501 14.075C4.4251 14.4 4.4251 14.925 4.7501 15.25C5.0751 15.575 5.6001 15.575 5.9251 15.25L10.0001 11.175L14.0751 15.25C14.4001 15.575 14.9251 15.575 15.2501 15.25C15.5751 14.925 15.5751 14.4 15.2501 14.075L11.1751 10L15.2501 5.92501C15.5668 5.60834 15.5668 5.07501 15.2501 4.75834Z" fill="#94A3B8"/>
</svg>
