<svg width="21" height="20" viewBox="0 0 21 20" fill="none" xmlns="http://www.w3.org/2000/svg">
<path d="M7.66671 17.5H4.50004C4.04171 17.5 3.64935 17.3368 3.32296 17.0104C2.99657 16.684 2.83337 16.2917 2.83337 15.8333V12.6667C3.50004 12.6667 4.08337 12.4549 4.58337 12.0312C5.08337 11.6076 5.33337 11.0694 5.33337 10.4167C5.33337 9.76389 5.08337 9.22569 4.58337 8.80208C4.08337 8.37847 3.50004 8.16667 2.83337 8.16667V5C2.83337 4.54167 2.99657 4.14931 3.32296 3.82292C3.64935 3.49653 4.04171 3.33333 4.50004 3.33333H7.83337C7.83337 2.75 8.03476 2.25694 8.43754 1.85417C8.84032 1.45139 9.33337 1.25 9.91671 1.25C10.5 1.25 10.9931 1.45139 11.3959 1.85417C11.7987 2.25694 12 2.75 12 3.33333H15.3334C15.7917 3.33333 16.1841 3.49653 16.5105 3.82292C16.8368 4.14931 17 4.54167 17 5V8.33333C17.5834 8.33333 18.0764 8.53472 18.4792 8.9375C18.882 9.34028 19.0834 9.83333 19.0834 10.4167C19.0834 11 18.882 11.4931 18.4792 11.8958C18.0764 12.2986 17.5834 12.5 17 12.5V15.8333C17 16.2917 16.8368 16.684 16.5105 17.0104C16.1841 17.3368 15.7917 17.5 15.3334 17.5H12.1667C12.1667 16.8056 11.948 16.2153 11.5105 15.7292C11.073 15.2431 10.5417 15 9.91671 15C9.29171 15 8.76046 15.2431 8.32296 15.7292C7.88546 16.2153 7.66671 16.8056 7.66671 17.5Z" fill="#94A3B8"/>
</svg>
