<svg width="12" height="12" viewBox="0 0 12 12" fill="none" xmlns="http://www.w3.org/2000/svg">
<g clip-path="url(#clip0_7_1741)">
<path d="M7.5 10H2.5V3.5C2.5 3.225 2.275 3 2 3C1.725 3 1.5 3.225 1.5 3.5V10C1.5 10.55 1.95 11 2.5 11H7.5C7.775 11 8 10.775 8 10.5C8 10.225 7.775 10 7.5 10ZM10 8V2C10 1.45 9.55 1 9 1H4.5C3.95 1 3.5 1.45 3.5 2V8C3.5 8.55 3.95 9 4.5 9H9C9.55 9 10 8.55 10 8ZM9 8H4.5V2H9V8Z" fill="#64748B"/>
</g>
<defs>
<clipPath id="clip0_7_1741">
<rect width="12" height="12" fill="white"/>
</clipPath>
</defs>
</svg>
