<svg width="21" height="19" viewBox="0 0 21 19" fill="none" xmlns="http://www.w3.org/2000/svg">
<path d="M13 19C12.45 19 11.9792 18.8042 11.5875 18.4125C11.1958 18.0208 11 17.55 11 17C11 16.6167 11.0917 16.275 11.275 15.975C11.4583 15.675 11.7 15.4333 12 15.25V9.725C11.7 9.54167 11.4583 9.30417 11.275 9.0125C11.0917 8.72083 11 8.38333 11 8C11 7.45 11.1958 6.97917 11.5875 6.5875C11.9792 6.19583 12.45 6 13 6C13.55 6 14.0208 6.19583 14.4125 6.5875C14.8042 6.97917 15 7.45 15 8C15 8.38333 14.9083 8.72083 14.725 9.0125C14.5417 9.30417 14.3 9.54167 14 9.725V12.6L18 11.275V9.725C17.7 9.54167 17.4583 9.30417 17.275 9.0125C17.0917 8.72083 17 8.38333 17 8C17 7.45 17.1958 6.97917 17.5875 6.5875C17.9792 6.19583 18.45 6 19 6C19.55 6 20.0208 6.19583 20.4125 6.5875C20.8042 6.97917 21 7.45 21 8C21 8.38333 20.9083 8.72083 20.725 9.0125C20.5417 9.30417 20.3 9.54167 20 9.725V11.25C20 11.6833 19.875 12.075 19.625 12.425C19.375 12.775 19.0417 13.0167 18.625 13.15L14 14.7V15.25C14.3 15.4333 14.5417 15.675 14.725 15.975C14.9083 16.275 15 16.6167 15 17C15 17.55 14.8042 18.0208 14.4125 18.4125C14.0208 18.8042 13.55 19 13 19ZM2 16C1.45 16 0.979167 15.8042 0.5875 15.4125C0.195833 15.0208 0 14.55 0 14V2C0 1.45 0.195833 0.979167 0.5875 0.5875C0.979167 0.195833 1.45 0 2 0H7.175C7.44167 0 7.69583 0.05 7.9375 0.15C8.17917 0.25 8.39167 0.391667 8.575 0.575L10 2H19C19.2833 2 19.5208 2.09583 19.7125 2.2875C19.9042 2.47917 20 2.71667 20 3C20 3.28333 19.9042 3.52083 19.7125 3.7125C19.5208 3.90417 19.2833 4 19 4H9.175L7.175 2H2V14H8C8.28333 14 8.52083 14.0958 8.7125 14.2875C8.90417 14.4792 9 14.7167 9 15C9 15.2833 8.90417 15.5208 8.7125 15.7125C8.52083 15.9042 8.28333 16 8 16H2Z" fill="#94A3B8"/>
</svg>
