<svg width="18" height="21" viewBox="0 0 18 21" fill="none" xmlns="http://www.w3.org/2000/svg">
<path fill-rule="evenodd" clip-rule="evenodd" d="M9.96301 1.286C9.90274 1.20524 9.82682 1.13745 9.73978 1.08668C9.65274 1.03592 9.55636 1.00321 9.45639 0.990515C9.35643 0.977821 9.25493 0.985401 9.15796 1.0128C9.061 1.0402 8.97054 1.08687 8.89201 1.15C6.97555 2.68857 5.71142 4.89463 5.35301 7.326C4.69618 6.8497 4.12046 6.2706 3.64801 5.611C3.58384 5.5213 3.50068 5.44686 3.40445 5.39298C3.30822 5.3391 3.20129 5.3071 3.09128 5.29927C2.98127 5.29144 2.87088 5.30797 2.76799 5.34768C2.6651 5.38738 2.57223 5.4493 2.49601 5.529C1.17533 6.91056 0.328752 8.67668 0.0789139 10.5715C-0.170924 12.4664 0.188948 14.3916 1.1064 16.0682C2.02385 17.7449 3.45125 19.086 5.18181 19.8972C6.91238 20.7084 8.85626 20.9476 10.7319 20.5801C12.6075 20.2127 14.3174 19.2577 15.614 17.8535C16.9106 16.4493 17.7265 14.6688 17.9435 12.7699C18.1605 10.871 17.7674 8.95236 16.8211 7.29183C15.8747 5.63129 14.4243 4.31513 12.68 3.534C11.6077 3.01257 10.676 2.2417 9.96301 1.286ZM12.75 13.25C12.7496 13.7924 12.6316 14.3283 12.404 14.8207C12.1764 15.3131 11.8448 15.7502 11.4318 16.102C11.0189 16.4538 10.5346 16.7118 10.0123 16.8582C9.49003 17.0046 8.94219 17.036 8.4066 16.9502C7.871 16.8643 7.3604 16.6633 6.91002 16.361C6.45965 16.0587 6.08022 15.6623 5.79791 15.1991C5.5156 14.7359 5.33714 14.217 5.27483 13.6782C5.21252 13.1393 5.26785 12.5934 5.43701 12.078C6.06501 12.543 6.78701 12.888 7.57001 13.078C7.78229 11.709 8.46258 10.4558 9.49501 9.532C10.396 9.65198 11.2228 10.0951 11.8215 10.779C12.4202 11.4629 12.7502 12.341 12.75 13.25Z" fill="#E6522C"/>
</svg>
