<svg width="24" height="24" viewBox="0 0 24 24" fill="none" xmlns="http://www.w3.org/2000/svg">
<path d="M10.9502 12.7L9.5002 11.275C9.31686 11.0917 9.0877 11 8.8127 11C8.5377 11 8.3002 11.1 8.1002 11.3C7.91686 11.4833 7.8252 11.7167 7.8252 12C7.8252 12.2833 7.91686 12.5167 8.1002 12.7L10.2502 14.85C10.4502 15.05 10.6835 15.15 10.9502 15.15C11.2169 15.15 11.4502 15.05 11.6502 14.85L15.9002 10.6C16.1002 10.4 16.196 10.1667 16.1877 9.9C16.1794 9.63333 16.0835 9.4 15.9002 9.2C15.7002 9 15.4627 8.89583 15.1877 8.8875C14.9127 8.87916 14.6752 8.975 14.4752 9.175L10.9502 12.7ZM8.1502 21.75L6.7002 19.3L3.9502 18.7C3.7002 18.65 3.5002 18.5208 3.3502 18.3125C3.2002 18.1042 3.14186 17.875 3.1752 17.625L3.4502 14.8L1.5752 12.65C1.40853 12.4667 1.3252 12.25 1.3252 12C1.3252 11.75 1.40853 11.5333 1.5752 11.35L3.4502 9.2L3.1752 6.375C3.14186 6.125 3.2002 5.89583 3.3502 5.6875C3.5002 5.47916 3.7002 5.35 3.9502 5.3L6.7002 4.7L8.1502 2.25C8.28353 2.03333 8.46686 1.8875 8.7002 1.8125C8.93353 1.7375 9.16686 1.75 9.4002 1.85L12.0002 2.95L14.6002 1.85C14.8335 1.75 15.0669 1.7375 15.3002 1.8125C15.5335 1.8875 15.7169 2.03333 15.8502 2.25L17.3002 4.7L20.0502 5.3C20.3002 5.35 20.5002 5.47916 20.6502 5.6875C20.8002 5.89583 20.8585 6.125 20.8252 6.375L20.5502 9.2L22.4252 11.35C22.5919 11.5333 22.6752 11.75 22.6752 12C22.6752 12.25 22.5919 12.4667 22.4252 12.65L20.5502 14.8L20.8252 17.625C20.8585 17.875 20.8002 18.1042 20.6502 18.3125C20.5002 18.5208 20.3002 18.65 20.0502 18.7L17.3002 19.3L15.8502 21.75C15.7169 21.9667 15.5335 22.1125 15.3002 22.1875C15.0669 22.2625 14.8335 22.25 14.6002 22.15L12.0002 21.05L9.4002 22.15C9.16686 22.25 8.93353 22.2625 8.7002 22.1875C8.46686 22.1125 8.28353 21.9667 8.1502 21.75ZM9.4502 19.95L12.0002 18.85L14.6002 19.95L16.0002 17.55L18.7502 16.9L18.5002 14.1L20.3502 12L18.5002 9.85L18.7502 7.05L16.0002 6.45L14.5502 4.05L12.0002 5.15L9.4002 4.05L8.0002 6.45L5.2502 7.05L5.5002 9.85L3.6502 12L5.5002 14.1L5.2502 16.95L8.0002 17.55L9.4502 19.95Z" fill="#34D399"/>
</svg>
