<svg width="20" height="20" viewBox="0 0 20 20" fill="none" xmlns="http://www.w3.org/2000/svg">
<path fill-rule="evenodd" clip-rule="evenodd" d="M19.9525 10.9805L18.9572 10.8837C18.9855 10.5932 19 10.2985 19 10C19 9.70155 18.9855 9.40678 18.9572 9.11631L19.9525 9.01945C19.9839 9.34206 20 9.66915 20 10C20 10.3308 19.9839 10.6579 19.9525 10.9805ZM19.5719 7.09617L18.6148 7.38612C18.4425 6.81749 18.2154 6.27253 17.9395 5.75735L18.821 5.28519C19.1277 5.8578 19.3803 6.46374 19.5719 7.09617ZM17.7304 3.65597L16.9577 4.2908C16.5833 3.83505 16.1649 3.4167 15.7092 3.04225L16.344 2.2696C16.8501 2.68539 17.3146 3.1499 17.7304 3.65597ZM14.7148 1.17901L14.2426 2.06053C13.7275 1.78459 13.1825 1.55745 12.6139 1.38517L12.9038 0.428132C13.5363 0.619741 14.1422 0.872313 14.7148 1.17901ZM10.9805 0.0474632L10.8837 1.04276C10.5932 1.01449 10.2985 1 10 1C9.70155 1 9.40678 1.01449 9.11631 1.04276L9.01945 0.0474633C9.34206 0.016067 9.66915 0 10 0C10.3308 0 10.6579 0.016067 10.9805 0.0474632ZM7.09617 0.428132L7.38612 1.38517C6.81749 1.55745 6.27253 1.78459 5.75735 2.06053L5.28519 1.17901C5.8578 0.872314 6.46374 0.619742 7.09617 0.428132ZM3.65597 2.2696L4.2908 3.04225C3.83505 3.4167 3.4167 3.83505 3.04225 4.2908L2.2696 3.65597C2.68539 3.14991 3.1499 2.68539 3.65597 2.2696ZM1.17901 5.2852L2.06053 5.75735C1.78459 6.27253 1.55745 6.81749 1.38517 7.38613L0.428132 7.09617C0.619741 6.46374 0.872313 5.8578 1.17901 5.2852ZM0.0474632 9.01945C0.016067 9.34206 0 9.66915 0 10C0 10.3308 0.016067 10.6579 0.0474633 10.9806L1.04276 10.8837C1.01449 10.5932 1 10.2985 1 10C1 9.70155 1.01449 9.40678 1.04276 9.11631L0.0474632 9.01945ZM0.428132 12.9038L1.38517 12.6139C1.55745 13.1825 1.78459 13.7275 2.06053 14.2427L1.17901 14.7148C0.872314 14.1422 0.619742 13.5363 0.428132 12.9038ZM2.2696 16.344L3.04225 15.7092C3.4167 16.1649 3.83505 16.5833 4.2908 16.9577L3.65597 17.7304C3.14991 17.3146 2.68539 16.8501 2.2696 16.344ZM5.2852 18.821L5.75735 17.9395C6.27253 18.2154 6.81749 18.4425 7.38613 18.6148L7.09617 19.5719C6.46374 19.3803 5.8578 19.1277 5.2852 18.821ZM9.01945 19.9525L9.11631 18.9572C9.40678 18.9855 9.70155 19 10 19C10.2985 19 10.5932 18.9855 10.8837 18.9572L10.9806 19.9525C10.6579 19.9839 10.3308 20 10 20C9.66915 20 9.34206 19.9839 9.01945 19.9525ZM12.9038 19.5719L12.6139 18.6148C13.1825 18.4425 13.7275 18.2154 14.2427 17.9395L14.7148 18.821C14.1422 19.1277 13.5363 19.3803 12.9038 19.5719ZM16.344 17.7304L15.7092 16.9577C16.1649 16.5833 16.5833 16.1649 16.9577 15.7092L17.7304 16.344C17.3146 16.8501 16.8501 17.3146 16.344 17.7304ZM18.821 14.7148L17.9395 14.2426C18.2154 13.7275 18.4425 13.1825 18.6148 12.6139L19.5719 12.9038C19.3803 13.5363 19.1277 14.1422 18.821 14.7148Z" fill="#94A3B8"/>
<path d="M6 8.0578C6 10.3353 7.56509 11.9133 9.77018 11.9133C10.1018 11.9133 10.416 11.8555 10.7069 11.7803L7.82109 16H10.352L13.1098 11.9422C14.1338 10.4277 14.6284 9.25434 14.64 8.00578C14.6458 5.46243 12.6444 4 10.2764 4C7.792 4 6 5.62428 6 8.0578ZM8.42036 7.9711C8.42036 6.79769 9.18836 5.95376 10.288 5.95376C11.3934 5.95376 12.1731 6.79769 12.1731 7.98266C12.1731 9.15607 11.3934 9.98844 10.288 9.98844C9.18836 9.98844 8.42036 9.15607 8.42036 7.9711Z" fill="#94A3B8"/>
</svg>
