<svg xmlns="http://www.w3.org/2000/svg" fill="none" viewBox="0 0 124 72"><path fill="#E6522C" fill-rule="evenodd" d="M13.463 14.286a.75.75 0 0 0-1.071-.136 9.742 9.742 0 0 0-3.539 6.176 7.547 7.547 0 0 1-1.705-1.715.75.75 0 0 0-1.152-.082 9 9 0 1 0 10.184-1.995 7.46 7.46 0 0 1-2.717-2.248ZM16.25 26.25a3.75 3.75 0 1 1-7.313-1.172c.628.465 1.35.81 2.133 1a5.99 5.99 0 0 1 1.925-3.546 3.75 3.75 0 0 1 3.255 3.718ZM15.115 37.595a.75.75 0 0 1 .359.852l-1.992 7.303h7.268a.75.75 0 0 1 .548 1.262l-10.5 11.25a.75.75 0 0 1-1.272-.71l1.992-7.302H4.25a.75.75 0 0 1-.548-1.262l10.5-11.25a.75.75 0 0 1 .913-.143Z" clip-rule="evenodd"/><path fill="#475569" d="M32.142 26h-2.25l4.097-11.636h2.602L40.693 26h-2.25l-3.108-9.25h-.09L32.141 26Zm.074-4.563h6.136v1.694h-6.136v-1.694ZM42.662 26l-2.466-8.727h2.097l1.534 6.136h.08l1.568-6.136h2.074l1.568 6.102h.085l1.512-6.102h2.102L50.344 26h-2.142l-1.636-5.898h-.12L44.81 26h-2.148ZM57.685 26.17c-.875 0-1.63-.181-2.267-.545a3.694 3.694 0 0 1-1.46-1.557c-.34-.674-.511-1.468-.511-2.38 0-.898.17-1.686.511-2.364a3.866 3.866 0 0 1 1.443-1.591c.618-.383 1.343-.574 2.176-.574.538 0 1.046.087 1.523.262.481.17.905.435 1.273.795.371.36.663.818.875 1.375.212.553.318 1.212.318 1.977v.63h-7.153v-1.386h5.181a2.213 2.213 0 0 0-.255-1.05 1.86 1.86 0 0 0-.699-.734 1.965 1.965 0 0 0-1.034-.267c-.42 0-.79.103-1.108.307-.318.2-.566.466-.744.796a2.29 2.29 0 0 0-.267 1.073v1.21c0 .508.092.944.278 1.308.186.36.445.636.778.83.334.189.724.283 1.17.283.3 0 .57-.042.813-.125.243-.087.453-.214.631-.38.178-.167.313-.374.403-.62l1.92.216c-.12.508-.351.95-.692 1.33a3.379 3.379 0 0 1-1.296.875c-.526.204-1.128.306-1.807.306ZM70.024 19.58l-1.875.204a1.506 1.506 0 0 0-.278-.534 1.382 1.382 0 0 0-.523-.403 1.904 1.904 0 0 0-.807-.154c-.428 0-.788.093-1.08.279-.287.185-.43.426-.426.721a.755.755 0 0 0 .279.62c.193.159.511.29.954.392l1.489.318c.826.178 1.44.46 1.84.846.406.387.61.892.614 1.517a2.374 2.374 0 0 1-.483 1.455c-.314.417-.751.742-1.312.977-.56.235-1.205.352-1.932.352-1.068 0-1.928-.223-2.58-.67-.65-.45-1.04-1.078-1.164-1.88l2.006-.194c.09.394.284.691.579.892.296.2.68.301 1.153.301.49 0 .881-.1 1.177-.3.299-.202.448-.45.448-.745a.775.775 0 0 0-.29-.62c-.189-.162-.484-.287-.886-.375l-1.488-.312c-.837-.174-1.457-.468-1.858-.88-.402-.417-.6-.944-.597-1.58-.004-.538.142-1.004.438-1.398.299-.398.714-.704 1.244-.92.534-.22 1.15-.33 1.847-.33 1.022 0 1.827.218 2.414.654.591.435.957 1.024 1.097 1.767ZM75.534 26.17c-.852 0-1.59-.187-2.216-.562a3.82 3.82 0 0 1-1.454-1.574c-.341-.674-.512-1.462-.512-2.363 0-.902.17-1.692.512-2.37a3.812 3.812 0 0 1 1.454-1.58c.625-.374 1.364-.562 2.216-.562.852 0 1.591.188 2.216.563a3.774 3.774 0 0 1 1.449 1.58c.345.677.517 1.467.517 2.369 0 .901-.172 1.689-.517 2.363a3.782 3.782 0 0 1-1.449 1.574c-.625.375-1.364.563-2.216.563Zm.012-1.647c.462 0 .848-.127 1.159-.381.31-.258.541-.602.693-1.034.155-.432.233-.913.233-1.443 0-.534-.078-1.017-.233-1.45-.152-.435-.383-.781-.693-1.039-.31-.257-.697-.386-1.16-.386-.473 0-.867.129-1.181.386-.31.258-.544.604-.7 1.04a4.356 4.356 0 0 0-.226 1.449c0 .53.075 1.011.227 1.443.155.432.388.776.699 1.034.314.254.708.38 1.182.38ZM81.282 26v-8.727h1.966v1.483h.102c.182-.5.483-.89.903-1.17.42-.285.923-.427 1.506-.427.591 0 1.09.144 1.494.432.41.284.697.672.864 1.165h.09c.194-.485.52-.872.978-1.16.462-.291 1.01-.437 1.642-.437.803 0 1.459.254 1.966.762.508.507.761 1.248.761 2.221V26h-2.062v-5.54c0-.541-.144-.937-.432-1.187a1.541 1.541 0 0 0-1.057-.381c-.496 0-.884.155-1.164.466-.277.307-.415.706-.415 1.199V26h-2.017v-5.625c0-.45-.137-.81-.41-1.08-.268-.269-.62-.403-1.056-.403-.296 0-.565.076-.807.227a1.586 1.586 0 0 0-.58.631 1.97 1.97 0 0 0-.215.943V26h-2.057ZM99.325 26.17c-.875 0-1.63-.181-2.267-.545a3.695 3.695 0 0 1-1.46-1.557c-.341-.674-.512-1.468-.512-2.38 0-.898.17-1.686.511-2.364a3.866 3.866 0 0 1 1.444-1.591c.617-.383 1.343-.574 2.176-.574a4.41 4.41 0 0 1 1.523.262c.481.17.905.435 1.272.795.372.36.663.818.875 1.375.212.553.318 1.212.318 1.977v.63h-7.153v-1.386h5.182a2.211 2.211 0 0 0-.256-1.05 1.85 1.85 0 0 0-.699-.734 1.963 1.963 0 0 0-1.034-.267c-.42 0-.79.103-1.108.307-.318.2-.566.466-.744.796a2.289 2.289 0 0 0-.267 1.073v1.21c0 .508.093.944.278 1.308.186.36.445.636.779.83.333.189.723.283 1.17.283.3 0 .57-.042.813-.125.242-.087.452-.214.63-.38.178-.167.313-.374.404-.62l1.92.216a2.99 2.99 0 0 1-.693 1.33 3.38 3.38 0 0 1-1.295.875c-.527.204-1.129.306-1.807.306ZM30.648 42V30.364h4.363c.894 0 1.644.166 2.25.5.61.333 1.07.791 1.381 1.375.314.58.472 1.238.472 1.977 0 .746-.158 1.409-.472 1.989a3.37 3.37 0 0 1-1.392 1.369c-.614.33-1.37.494-2.267.494H32.09v-1.733h2.608c.523 0 .95-.09 1.284-.273a1.72 1.72 0 0 0 .739-.75c.163-.318.244-.683.244-1.096 0-.413-.081-.777-.244-1.091a1.66 1.66 0 0 0-.745-.733c-.333-.178-.763-.267-1.29-.267h-1.931V42h-2.108ZM40.674 42v-8.727h1.994v1.454h.09c.16-.503.433-.892.82-1.164.39-.277.834-.415 1.334-.415.114 0 .24.005.381.017.144.007.263.02.358.04v1.892a2.17 2.17 0 0 0-.415-.08 3.818 3.818 0 0 0-.54-.04 2.08 2.08 0 0 0-1.011.245c-.295.159-.528.38-.699.664-.17.284-.255.612-.255.983V42h-2.057ZM50.285 42.17c-.852 0-1.591-.187-2.216-.562a3.82 3.82 0 0 1-1.455-1.574c-.34-.674-.51-1.462-.51-2.364 0-.901.17-1.69.51-2.369a3.812 3.812 0 0 1 1.455-1.58c.625-.374 1.364-.562 2.216-.562.852 0 1.59.188 2.216.563a3.774 3.774 0 0 1 1.449 1.58c.344.677.517 1.467.517 2.368 0 .902-.173 1.69-.517 2.364a3.782 3.782 0 0 1-1.45 1.574c-.624.375-1.363.563-2.215.563Zm.011-1.647c.462 0 .849-.127 1.16-.381.31-.258.541-.602.692-1.034.156-.432.233-.913.233-1.443 0-.534-.077-1.017-.233-1.45-.151-.435-.382-.781-.693-1.039-.31-.257-.697-.386-1.159-.386-.473 0-.867.129-1.182.386-.31.258-.543.604-.698 1.04a4.353 4.353 0 0 0-.228 1.449c0 .53.076 1.011.228 1.443.155.432.388.777.698 1.034.315.254.709.38 1.182.38ZM56.032 42v-8.727h1.966v1.483h.103c.181-.5.483-.89.903-1.17.42-.285.922-.427 1.506-.427.59 0 1.089.144 1.494.432.41.284.697.672.864 1.165h.09c.194-.485.52-.871.978-1.16.462-.291 1.01-.437 1.642-.437.803 0 1.458.254 1.966.761.507.508.761 1.249.761 2.222V42h-2.062v-5.54c0-.541-.144-.937-.432-1.187-.288-.254-.64-.381-1.057-.381-.496 0-.884.155-1.165.466-.276.307-.414.706-.414 1.199V42h-2.018v-5.625c0-.45-.136-.81-.409-1.08-.269-.269-.62-.403-1.056-.403-.296 0-.565.076-.807.227a1.585 1.585 0 0 0-.58.631 1.969 1.969 0 0 0-.216.943V42h-2.057ZM74.075 42.17c-.875 0-1.63-.181-2.267-.545a3.694 3.694 0 0 1-1.46-1.557c-.34-.674-.511-1.468-.511-2.38 0-.898.17-1.686.511-2.364a3.866 3.866 0 0 1 1.443-1.591c.618-.383 1.343-.574 2.177-.574.537 0 1.045.087 1.522.261.481.17.906.436 1.273.796.371.36.663.818.875 1.375.212.553.318 1.212.318 1.977v.63h-7.153v-1.386h5.181a2.213 2.213 0 0 0-.255-1.05 1.86 1.86 0 0 0-.699-.734 1.965 1.965 0 0 0-1.034-.267c-.42 0-.79.103-1.108.307-.318.2-.566.466-.744.796a2.29 2.29 0 0 0-.267 1.074v1.21c0 .507.092.943.278 1.306.186.36.445.637.778.83.334.19.724.284 1.17.284.3 0 .57-.041.813-.125.243-.087.453-.214.631-.38.178-.167.313-.374.403-.62l1.92.216c-.12.508-.351.95-.692 1.33a3.379 3.379 0 0 1-1.296.875c-.526.204-1.129.306-1.807.306ZM83.874 33.273v1.59h-5.017v-1.59h5.017Zm-3.778-2.091h2.056v8.193c0 .276.042.489.126.636.087.144.2.243.34.296.14.053.296.08.466.08.13 0 .247-.01.353-.029.11-.019.193-.036.25-.051l.346 1.608c-.11.038-.267.08-.471.125-.201.045-.447.072-.739.08a3.354 3.354 0 0 1-1.392-.234 2.165 2.165 0 0 1-.983-.806c-.239-.364-.356-.819-.352-1.364v-8.534ZM87.659 36.886V42h-2.057V30.364h2.011v4.392h.102c.205-.493.521-.881.95-1.165.431-.288.98-.432 1.647-.432.606 0 1.135.127 1.585.38.451.255.8.626 1.046 1.114.25.489.375 1.086.375 1.79V42H91.26v-5.239c0-.587-.152-1.043-.455-1.369-.299-.33-.72-.494-1.261-.494-.364 0-.69.08-.977.238a1.67 1.67 0 0 0-.67.676c-.16.296-.24.654-.24 1.074ZM99.098 42.17c-.875 0-1.63-.181-2.267-.545a3.694 3.694 0 0 1-1.46-1.557c-.341-.674-.512-1.468-.512-2.38 0-.898.17-1.686.512-2.364a3.866 3.866 0 0 1 1.443-1.591c.617-.383 1.343-.574 2.176-.574.538 0 1.045.087 1.523.261.481.17.905.436 1.272.796.372.36.663.818.875 1.375.213.553.319 1.212.319 1.977v.63h-7.154v-1.386h5.182a2.211 2.211 0 0 0-.256-1.05 1.85 1.85 0 0 0-.699-.734 1.962 1.962 0 0 0-1.034-.267c-.42 0-.79.103-1.108.307-.318.2-.566.466-.744.796a2.29 2.29 0 0 0-.267 1.074v1.21c0 .507.093.943.278 1.306.186.36.446.637.779.83.333.19.723.284 1.17.284.3 0 .57-.041.813-.125.242-.087.453-.214.631-.38.178-.167.312-.374.403-.62l1.92.216a2.99 2.99 0 0 1-.693 1.33 3.38 3.38 0 0 1-1.295.875c-.527.204-1.129.306-1.807.306ZM110.101 38.33v-5.057h2.057V42h-1.994v-1.551h-.091a2.624 2.624 0 0 1-.972 1.199c-.447.31-.998.466-1.653.466-.572 0-1.078-.127-1.517-.381a2.643 2.643 0 0 1-1.023-1.12c-.246-.492-.369-1.087-.369-1.783v-5.557h2.056v5.238c0 .553.152.993.455 1.319.303.325.701.488 1.193.488.303 0 .597-.074.881-.221.284-.148.517-.368.699-.66.185-.295.278-.664.278-1.107ZM120.991 35.58l-1.875.204a1.501 1.501 0 0 0-.279-.534 1.379 1.379 0 0 0-.522-.403 1.906 1.906 0 0 0-.807-.154c-.428 0-.788.093-1.08.279-.288.185-.43.426-.426.721a.753.753 0 0 0 .279.62c.193.159.511.29.954.392l1.489.318c.825.178 1.439.46 1.841.846.405.387.609.892.613 1.517a2.37 2.37 0 0 1-.483 1.455c-.314.417-.752.742-1.312.977-.561.235-1.205.352-1.932.352-1.068 0-1.928-.223-2.58-.67-.651-.45-1.039-1.078-1.164-1.88l2.005-.194c.091.394.284.691.58.892.295.2.68.301 1.153.301.489 0 .881-.1 1.176-.3.3-.202.449-.45.449-.745a.775.775 0 0 0-.289-.62c-.19-.162-.485-.287-.887-.374l-1.488-.313c-.838-.174-1.457-.468-1.858-.88-.402-.417-.601-.944-.597-1.58-.004-.538.142-1.004.438-1.398.299-.398.714-.704 1.244-.92.534-.22 1.149-.33 1.846-.33 1.023 0 1.828.218 2.415.654.591.435.957 1.024 1.097 1.767ZM29.136 48.13v-1.766h9.284v1.767h-3.596V58h-2.091v-9.87h-3.597ZM42.48 58.17c-.852 0-1.59-.187-2.215-.562a3.82 3.82 0 0 1-1.455-1.574c-.34-.674-.511-1.462-.511-2.364 0-.901.17-1.69.511-2.369a3.812 3.812 0 0 1 1.455-1.58c.625-.374 1.363-.562 2.215-.562.853 0 1.591.188 2.216.563a3.775 3.775 0 0 1 1.45 1.58c.344.677.516 1.467.516 2.368 0 .902-.172 1.69-.517 2.364a3.783 3.783 0 0 1-1.449 1.574c-.625.375-1.363.563-2.215.563Zm.012-1.647c.462 0 .848-.127 1.159-.381.31-.258.542-.602.693-1.034.155-.432.233-.913.233-1.443 0-.534-.078-1.017-.233-1.45-.151-.435-.382-.781-.693-1.039-.31-.257-.697-.386-1.16-.386-.473 0-.867.129-1.181.386-.31.258-.544.604-.699 1.04a4.356 4.356 0 0 0-.227 1.449c0 .53.076 1.011.227 1.443.156.432.388.777.699 1.034.314.254.708.38 1.182.38ZM52.035 58.17c-.852 0-1.591-.187-2.216-.562a3.82 3.82 0 0 1-1.455-1.574c-.34-.674-.51-1.462-.51-2.364 0-.901.17-1.69.51-2.369a3.812 3.812 0 0 1 1.455-1.58c.625-.374 1.364-.562 2.216-.562.852 0 1.59.188 2.216.563a3.774 3.774 0 0 1 1.449 1.58c.344.677.517 1.467.517 2.368 0 .902-.173 1.69-.517 2.364a3.782 3.782 0 0 1-1.45 1.574c-.624.375-1.363.563-2.215.563Zm.011-1.647c.462 0 .849-.127 1.16-.381.31-.258.541-.602.692-1.034.156-.432.233-.913.233-1.443 0-.534-.077-1.017-.233-1.45-.151-.435-.382-.781-.693-1.039-.31-.257-.697-.386-1.159-.386-.473 0-.867.129-1.182.386-.31.258-.543.604-.698 1.04a4.353 4.353 0 0 0-.228 1.449c0 .53.076 1.011.228 1.443.155.432.388.777.698 1.034.315.254.709.38 1.182.38ZM57.782 46.364h2.057V55.5c0 .326.05.559.148.699.099.14.273.206.523.199.136-.004.238-.012.306-.023.072-.015.137-.03.194-.045l.34 1.556a4.1 4.1 0 0 1-1.113.17c-.833.024-1.45-.15-1.852-.522-.402-.371-.603-.937-.603-1.699v-9.471ZM64.306 55.261l-.006-2.483h.33l3.136-3.505h2.403l-3.858 4.295h-.426l-1.58 1.693ZM62.43 58V46.364h2.056V58h-2.056Zm5.477 0-2.841-3.972 1.386-1.448L70.368 58h-2.46ZM71.36 58v-8.727h2.057V58H71.36Zm1.034-9.966a1.2 1.2 0 0 1-.84-.324 1.044 1.044 0 0 1-.353-.79c0-.31.117-.573.352-.79.235-.219.515-.329.841-.329.33 0 .61.11.84.33.236.216.353.479.353.79 0 .306-.117.57-.352.79a1.187 1.187 0 0 1-.841.323ZM79.71 49.273v1.59h-5.017v-1.59h5.017Zm-3.779-2.091h2.057v8.193c0 .276.042.489.125.636.087.144.2.243.341.296.14.053.296.08.466.08.129 0 .246-.01.352-.029.11-.019.193-.036.25-.051l.347 1.608a4.63 4.63 0 0 1-.472.125c-.2.045-.447.072-.738.08a3.354 3.354 0 0 1-1.392-.234 2.165 2.165 0 0 1-.983-.806c-.239-.364-.356-.819-.353-1.364v-8.534Z"/></svg>