<svg width="18" height="22" viewBox="0 0 18 22" fill="none" xmlns="http://www.w3.org/2000/svg">
<path fill-rule="evenodd" clip-rule="evenodd" d="M11.615 0.594999C11.7614 0.676496 11.8763 0.80468 11.9414 0.959103C12.0065 1.11353 12.0179 1.28529 11.974 1.447L9.982 8.75H17.25C17.3962 8.75001 17.5391 8.79272 17.6613 8.8729C17.7836 8.95307 17.8797 9.06721 17.9379 9.20127C17.9961 9.33534 18.0139 9.4835 17.989 9.62753C17.9642 9.77156 17.8978 9.90519 17.798 10.012L7.298 21.262C7.18364 21.3848 7.03139 21.4657 6.86562 21.4918C6.69986 21.5178 6.53014 21.4875 6.38361 21.4057C6.23709 21.324 6.12223 21.1954 6.05739 21.0406C5.99256 20.8858 5.98151 20.7138 6.026 20.552L8.018 13.25H0.749999C0.603837 13.25 0.460864 13.2073 0.338653 13.1271C0.216443 13.0469 0.120321 12.9328 0.0621051 12.7987C0.00388894 12.6647 -0.013885 12.5165 0.0109684 12.3725C0.0358218 12.2284 0.102219 12.0948 0.201999 11.988L10.702 0.737999C10.8164 0.615645 10.9684 0.535092 11.1339 0.509176C11.2993 0.48326 11.4687 0.513473 11.615 0.594999Z" fill="#E6522C"/>
</svg>
